<svg xmlns="http://www.w3.org/2000/svg" viewBox="0 0 358.19 375.47"><defs><style>.cls-1{fill:#eee;}.cls-2{fill:none;stroke:#211815;stroke-miterlimit:10;stroke-width:2px;}</style></defs><title>icon1</title><g id="레이어_2" data-name="레이어 2"><g id="레이어_1-2" data-name="레이어 1"><path class="cls-1" d="M77.2,0h281a0,0,0,0,1,0,0V375.47a0,0,0,0,1,0,0H0a0,0,0,0,1,0,0V77.2A77.2,77.2,0,0,1,77.2,0Z"/><circle class="cls-2" cx="182.41" cy="220.34" r="131.1"/><path class="cls-2" d="M189.29,195.42c-10.49-22.48-21.56-42.81-21.56-42.81s-40,73.4-40,95.48a40,40,0,0,0,78.75,9.75m-61.82,10.31c-14.6-11.85,0-34.24,0-34.24S130.08,256.3,144.68,268.15Zm6.23-47.81,15.42-33.41Zm43.3-13.09,12.29-26.63Z"/><path class="cls-2" d="M207.71,158.35s-10.07,18.49-18.42,37.07c9.44,20.23,18.42,42.21,18.42,52.67a39.7,39.7,0,0,1-1.21,9.75c.4,0,.8,0,1.21,0a29.37,29.37,0,0,0,29.37-29.37C237.08,212.28,207.71,158.35,207.71,158.35Z"/></g></g></svg>