<svg xmlns="http://www.w3.org/2000/svg" viewBox="0 0 358.19 375.47"><defs><style>.cls-1{fill:#eee;}.cls-2{fill:none;stroke:#211815;stroke-miterlimit:10;stroke-width:2px;}.cls-3{fill:#211815;}</style></defs><title>icon3</title><g id="레이어_2" data-name="레이어 2"><g id="레이어_1-2" data-name="레이어 1"><path class="cls-1" d="M77.2,0h281a0,0,0,0,1,0,0V375.47a0,0,0,0,1,0,0H0a0,0,0,0,1,0,0V77.2A77.2,77.2,0,0,1,77.2,0Z"/><circle class="cls-2" cx="182.41" cy="220.34" r="131.1"/><path class="cls-3" d="M144.18,219.65l-.58-4.73c-3.73-30-6.45-32.73-36.45-36.45l-4.74-.59,4.74-.59c30-3.72,32.72-6.45,36.45-36.45l.58-4.73.59,4.73c3.72,30,6.45,32.73,36.45,36.45l4.73.59-4.73.59c-30,3.72-32.73,6.44-36.45,36.45Zm-32.36-41.77c24.9,3.4,29,7.46,32.36,32.36,3.41-24.9,7.46-29,32.37-32.36-24.91-3.41-29-7.46-32.37-32.36C140.78,170.42,136.72,174.47,111.82,177.88Z"/><path class="cls-3" d="M166.65,304.57l-.58-4.74c-3.72-30-6.45-32.73-36.45-36.45l-4.74-.59,4.74-.58c30-3.72,32.73-6.45,36.45-36.45l.58-4.74.59,4.74c3.72,30,6.45,32.73,36.45,36.45l4.74.58-4.74.59c-30,3.72-32.73,6.45-36.45,36.45Zm-32.36-41.78c24.9,3.41,29,7.47,32.36,32.37,3.41-24.9,7.47-29,32.37-32.37-24.9-3.4-29-7.46-32.37-32.36C163.25,255.33,159.19,259.39,134.29,262.79Z"/><path class="cls-3" d="M220.64,254.52l-.59-4.74c-3.72-30-6.44-32.72-36.44-36.45l-4.74-.58,4.74-.59c30-3.72,32.72-6.45,36.44-36.45l.59-4.73.59,4.73c3.72,30,6.45,32.73,36.45,36.45l4.73.59-4.73.58c-30,3.73-32.73,6.45-36.45,36.45Zm-32.36-41.77c24.9,3.4,29,7.46,32.36,32.36,3.41-24.9,7.46-29,32.37-32.36-24.91-3.41-29-7.46-32.37-32.37C217.24,205.29,213.18,209.34,188.28,212.75Z"/></g></g></svg>