<svg xmlns="http://www.w3.org/2000/svg" viewBox="0 0 358.19 375.47"><defs><style>.cls-1{fill:#eee;}.cls-2{fill:none;stroke:#211815;stroke-miterlimit:10;stroke-width:2px;}.cls-3{fill:#211815;}</style></defs><title>icon2</title><g id="레이어_2" data-name="레이어 2"><g id="레이어_1-2" data-name="레이어 1"><path class="cls-1" d="M77.2,0h281a0,0,0,0,1,0,0V375.47a0,0,0,0,1,0,0H0a0,0,0,0,1,0,0V77.2A77.2,77.2,0,0,1,77.2,0Z"/><circle class="cls-2" cx="182.41" cy="220.34" r="131.1"/><path class="cls-2" d="M132.14,158s-65.33,63.86,10.28,108.65"/><polygon class="cls-3" points="149.86 255.95 129.49 274.06 155.36 282.65 149.86 255.95"/><path class="cls-2" d="M205.28,283.55c-.22.35,82-44.85,26.4-113.08"/><polygon class="cls-3" points="220.69 183.82 241.07 165.72 215.2 157.13 220.69 183.82"/></g></g></svg>