<svg xmlns="http://www.w3.org/2000/svg" viewBox="0 0 117.04 111.1"><defs><style>.cls-1{fill:none;stroke:#314f6c;stroke-miterlimit:10;stroke-width:2px;}.cls-2{fill:#314f6c;}</style></defs><title>checkPoint</title><g id="레이어_2" data-name="레이어 2"><g id="레이어_1-2" data-name="레이어 1"><rect class="cls-1" x="6.81" y="37.13" width="72.97" height="72.97"/><path class="cls-2" d="M117.94.48c.22-.15-.13-.4-.15-.48C117.53.36,118,.55,117.94.48Z" transform="translate(-0.97)"/><polygon class="cls-2" points="114.47 4.07 114.41 3.89 114.22 4.63 114.47 4.07"/><path class="cls-2" d="M112.5,6.77c.76.26,1-1.07,1.68-1.36l.19,0-.15-.64C113.64,5.46,113.07,6.5,112.5,6.77Z" transform="translate(-0.97)"/><path class="cls-2" d="M109.89,7.11c.29.11-.17.49.42-.28h-.11A2.64,2.64,0,0,1,109.89,7.11Z" transform="translate(-0.97)"/><path class="cls-2" d="M110.2,6.84c.29-.3-.36,0,0,0Z" transform="translate(-0.97)"/><path class="cls-2" d="M108.89,8.29l.24-.56c-.2,0-.59.28-.53.06C108.27,8.28,108.47,8.32,108.89,8.29Z" transform="translate(-0.97)"/><path class="cls-2" d="M108.87,9l.13-.27C108.92,8.74,108.85,8.78,108.87,9Z" transform="translate(-0.97)"/><path class="cls-2" d="M109.3,8.18l-.3.58c.14,0,.31.19.15-.25C109.26,8.7,109.21,8.47,109.3,8.18Z" transform="translate(-0.97)"/><path class="cls-2" d="M109.62,8c.34-.1.69-.3.46.26C110.78,7.48,110.33,7.22,109.62,8Z" transform="translate(-0.97)"/><path class="cls-2" d="M112.85,7.45l.45-.13.1-.42C113.35,7.11,112.68,7.31,112.85,7.45Z" transform="translate(-0.97)"/><path class="cls-2" d="M106.12,10.4c.08.14.42.16.58.28l.18-.41C106.65,10.34,106.3,10.54,106.12,10.4Z" transform="translate(-0.97)"/><path class="cls-2" d="M106.7,10.68l-.26.61C106.85,10.93,106.84,10.77,106.7,10.68Z" transform="translate(-0.97)"/><polygon class="cls-2" points="108.37 9.68 108.72 8.59 108.23 9.81 108.37 9.68"/><polygon class="cls-2" points="103.45 12.02 103.46 11.52 103.38 12.34 103.45 12.02"/><path class="cls-2" d="M103.35,13.15c0-.39-.6-.11-.53-.43a2.69,2.69,0,0,0-.43,1.15A1.44,1.44,0,0,1,103.35,13.15Z" transform="translate(-0.97)"/><path class="cls-2" d="M102.23,14.48a2.46,2.46,0,0,0,.16-.61A1.76,1.76,0,0,0,102.23,14.48Z" transform="translate(-0.97)"/><path class="cls-2" d="M105.64,12a.73.73,0,0,0-.65,0l.47.14Z" transform="translate(-0.97)"/><path class="cls-2" d="M105.48,12.13h0l-.39.34Z" transform="translate(-0.97)"/><path class="cls-2" d="M105.68,11.92l0,0S105.7,12,105.68,11.92Z" transform="translate(-0.97)"/><path class="cls-2" d="M107.91,10.5c-.1.42-.47,1.12.31.88C108.21,11,107.76,11.13,107.91,10.5Z" transform="translate(-0.97)"/><path class="cls-2" d="M106.27,12.1l.53-.38c-.08-.07-.28-.11-.24-.32Z" transform="translate(-0.97)"/><polygon class="cls-2" points="105.16 12.42 105.29 12.1 105.1 12.24 105.16 12.42"/><path class="cls-2" d="M103.31,14a1.83,1.83,0,0,1-.51.82,5.11,5.11,0,0,0,.9-.69C103.64,14,103.59,13.7,103.31,14Z" transform="translate(-0.97)"/><path class="cls-2" d="M104.39,13.12l0,.06S104.44,13.16,104.39,13.12Z" transform="translate(-0.97)"/><polygon class="cls-2" points="99.38 17.2 99.47 17.22 99.43 17.16 99.38 17.2"/><path class="cls-2" d="M103.8,14.14a.61.61,0,0,0,.33-.54,3.39,3.39,0,0,1-.43.52C103.72,14.18,103.75,14.21,103.8,14.14Z" transform="translate(-0.97)"/><path class="cls-2" d="M101.68,15.29a3.93,3.93,0,0,0,.52-.17C102,15.12,101.64,15.18,101.68,15.29Z" transform="translate(-0.97)"/><path class="cls-2" d="M104.21,13.16l0-.05C104.1,13.11,104.14,13.14,104.21,13.16Z" transform="translate(-0.97)"/><path class="cls-2" d="M104.21,13.16a1.36,1.36,0,0,0-.08.44,2.18,2.18,0,0,0,.23-.42Z" transform="translate(-0.97)"/><path class="cls-2" d="M101.55,19.88c-.25-.31,0-1.09.76-1.23.24-.66-1-1.3-1.86-1.43.1.14.21.25-.08.87.31,0,1.37-.65,1.24,0-.46.75-.6.39-1,.54.6.1-.26,1.27.38,1.65l.35-.7C101.39,19.64,101.33,20,101.55,19.88Z" transform="translate(-0.97)"/><path class="cls-2" d="M101.34,16.38l.16-.22a2.44,2.44,0,0,1-1,.26c-.18.45-.14.62-.07.74l1-.88Z" transform="translate(-0.97)"/><path class="cls-2" d="M102.35,15.34c.15.45-.17,1,.43,1.08.54-.56.14-.63.34-1.09-.82,1,.09-.42-.73,0a3.58,3.58,0,0,1,.41-.55,4.28,4.28,0,0,1-.6.31h0c.08,0,.12,0,.05,0v0a1,1,0,0,1,.07.15c-.32.19-.12,0-.07-.15a.21.21,0,0,0,0-.06h0l-.74,1A4.27,4.27,0,0,0,102.35,15.34Z" transform="translate(-0.97)"/><path class="cls-2" d="M108.37,12.51a.11.11,0,0,1-.09,0C108.25,12.56,108.26,12.61,108.37,12.51Z" transform="translate(-0.97)"/><path class="cls-2" d="M107.82,12.68c0-.1,0-.28.21-.46s.14.15.25.25c0-.21.24-.65-.32-.42l0,.1c-.46.25-1.3.31-1.28.21A3.09,3.09,0,0,0,107.82,12.68Z" transform="translate(-0.97)"/><path class="cls-2" d="M105.14,14.11l-.6.88.64-.1-.18-.15C105.49,14.39,105.21,14.29,105.14,14.11Z" transform="translate(-0.97)"/><polygon class="cls-2" points="99.14 17.13 98.92 16.71 98.94 17.59 99.14 17.13"/><polygon class="cls-2" points="98.22 18.13 97.97 17.81 97.89 18.24 98.22 18.13"/><path class="cls-2" d="M52.22,78.54l-.09.31A1,1,0,0,0,52.22,78.54Z" transform="translate(-0.97)"/><path class="cls-2" d="M53.59,76.81l-.12-.16C53.49,76.8,53.53,76.88,53.59,76.81Z" transform="translate(-0.97)"/><path class="cls-2" d="M76.17,42.33c-.57.08-1.33.07-1,.33l.42.18A1.06,1.06,0,0,1,76.17,42.33Z" transform="translate(-0.97)"/><path class="cls-2" d="M63.19,61.27l.19,0-.13-.49Z" transform="translate(-0.97)"/><path class="cls-2" d="M64.37,62.66l-.59.27A2.08,2.08,0,0,0,64.37,62.66Z" transform="translate(-0.97)"/><path class="cls-2" d="M45.3,88.42l.14.55C45.77,88.52,45.45,88.58,45.3,88.42Z" transform="translate(-0.97)"/><path class="cls-2" d="M89.52,28.16a2.83,2.83,0,0,0-.85.51C89.17,28.51,89.7,28.5,89.52,28.16Z" transform="translate(-0.97)"/><path class="cls-2" d="M49.12,75c0,.2,0,.31.05.37C49.23,75.2,49.23,75.06,49.12,75Z" transform="translate(-0.97)"/><path class="cls-2" d="M87.9,29.48a1.31,1.31,0,0,0,.21-.08,2.85,2.85,0,0,1,.56-.73A1,1,0,0,0,87.9,29.48Z" transform="translate(-0.97)"/><path class="cls-2" d="M12.87,69.9a1,1,0,0,0,0-.1S12.82,69.87,12.87,69.9Z" transform="translate(-0.97)"/><path class="cls-2" d="M4.43,59.41a4,4,0,0,1,.48.23A1.15,1.15,0,0,0,4.43,59.41Z" transform="translate(-0.97)"/><path class="cls-2" d="M95.18,21.86c.18-.23,0-.07,0,0Z" transform="translate(-0.97)"/><path class="cls-2" d="M97.39,22.08a.3.3,0,0,0,.06.23A.38.38,0,0,1,97.39,22.08Z" transform="translate(-0.97)"/><path class="cls-2" d="M87.88,33.42h0C88,33.43,88,33.43,87.88,33.42Z" transform="translate(-0.97)"/><path class="cls-2" d="M95.62,21.69a2.23,2.23,0,0,0-.35.17A1.69,1.69,0,0,0,95.62,21.69Z" transform="translate(-0.97)"/><path class="cls-2" d="M95.44,21.59l.2-.15C95.62,21.36,95.56,21.35,95.44,21.59Z" transform="translate(-0.97)"/><path class="cls-2" d="M94.92,22.16a2.42,2.42,0,0,1,.35-.3q-.09,0-.09,0Z" transform="translate(-0.97)"/><path class="cls-2" d="M30.2,85s0,0,0-.07C29.88,84.81,30,84.9,30.2,85Z" transform="translate(-0.97)"/><path class="cls-2" d="M74.57,50.91s0,0,0,0l0,0Z" transform="translate(-0.97)"/><path class="cls-2" d="M74.14,51.89c-.12-.68.09-.83.4-1l-1.17-.57Z" transform="translate(-0.97)"/><path class="cls-2" d="M49.09,82.8l.75-.33c0,1.08-.57,1.45.27,1.24-1-.91,1.6-2.3.59-3.21l.51-.2c-.09.1,0,.17-.13.26,1.08-.33-.36-1.14.52-2,.34-.26.67-.37.62,0l.3-.94c.19-.19.33,0,.15.2l.78-1.18,0,0a5.86,5.86,0,0,1,0-1.11c.38-.16,0,.23.19.26L53.9,75c.47,0,.34.69,0,1.08,1.52.27.13-.72,1.73-1.46l-.32.68c.9.11,1-.52,1.93-.87-.32,0-2,.56-1.72-.32a1,1,0,0,0,.53-.87c.38.3.56-.12.89-.58l.48.43c.23-.59-.06-.76-.06-1.21.47-.49.94-.29,1.36-.16.75-.78-1.08.09-.38-1a4,4,0,0,0,1.33-2.27c.57-.35.24.33.52.27l0-.75c.09-.1.19,0,.23.1.15-.49-.47-.43-.14-1.12-.42-.6,1.76-.52,1.71-1.74.29-.06.24.34.47.44a7.57,7.57,0,0,0,.5-2.32l.89-.4c-.79.19-.7-.81-.59-1.66a6.58,6.58,0,0,0-.77.09l.48-1.11c.17,0,.27.19.35.51,0-.1,0-.19,0-.26.44-.17.59.23.67.69l-.56.06a1.75,1.75,0,0,0,.6,1.14.78.78,0,0,1,.11-.4c0,.13.07.23.14.24s0-.17,0-.42l.72.26-.18-.23L66.12,61c.14-1.28-.08-2.7.82-4.19.12.66.59.62,1,1-.81-.07-.65,1.19-1.32,1.79.35-.31.51,0,.52.11l.56-1.59c.36.35.51,0,.93-.19-1-.41.26-1.33.45-2,.28.19.44.53-.13,1.07,1.13-.17-.17-1.62.87-1.84-.11.15-.22.19-.14.36.06-.53,1-1.21,1-.82l-.12.15c.92-.89,2.53-2.93,2-3.63a6,6,0,0,1,.74,1l-.64-3.59c.41.63,2.23,1.21,1.84,2.27a1.64,1.64,0,0,0,.84-1c-.21.09-1.13-.31-1-.57,1.12,0,.68-.11,1.83-.37-.32.13-1-.89-.6-1.23.08.17.87.72.84.93l0-1.66c0,.36.68.67,1.09.68-.25,0,.71-.77.85-1.09l-.54.21c1-.9-.26-2.06.7-3,.06.28.79,1.26,1.36.85-.22-.63-1.11-2.91-.62-4.11l.4,0,.34-.94a22.17,22.17,0,0,1,.45,4.58c.53-.21.38.15.87-.44.42,0,.07.63-.07.81l1.35-1.2c-.55-.39.42-1.47,0-1.8l-.79,1.92c-.55-.39-.65-2.12.29-3,.42-.05.72,1,.9,1.12-.06-.28.5-1.18.7-1.16l-.11.64c.67-.34.14-1.45,1.19-1.63.23-.19,1.23-.06,1-.36a6.1,6.1,0,0,1-2.9-2.35,9.79,9.79,0,0,1,2.1-.62c.77.06.55,1.51,1.21,1.56a1,1,0,0,1-.08-.62c.32-.12.33.48.72-.06-.42-.55,1-1-.2-.63.3-.61.57-.41,1.08-1-.49-.12-.62-1.53-.3-2.14a.76.76,0,0,0,.49.22c1-.94,1.69-1.24,2.56-2.15.2,0,.77-.27.8.12a1.2,1.2,0,0,1,.24-.78c.94-.14-.53.68.38.76-.26-.31.29-1.1.49-1.67-.55-.3-1,.84-1.16,1.41-.61-.58-.59-1.89,0-3.11.58-.9.71.05.75-.16,1.48-1.3.12-2.22,1.69-3,.84-.09.79.72,1.17.89-.45.75-1.16.7-1.55,1.12l.68-.33a1.37,1.37,0,0,1-.69.93c.72,0,2.38-2.3,3.76-3.06.06-.32.25-.78-.06-.78l-.28.4c-.61,0,.21-1.07-.36-.78a3.07,3.07,0,0,1,1.22-2l.55.32c-.14-.12-.67.16-.72.47.07-.46,1.57-.39,1.29-1.25l-.75.14c.24-.67.35-1.69,1.06-2.12-.69-.17-.09.18-1,.08,1,.27-1.49,1.42-.27,1.52-1-.17-1,.46-2,.51.16.13.46.08-.09.49a.58.58,0,0,1,0,.23l0,0h0s0,.05,0,0a.75.75,0,0,1,.46,0c.09.56-.66,1.32-.75,1.75-.34.21,0-.29-.35-.28l-.12.64c-.36-.28-1.28.23-.81-.63l-.61.6a2.07,2.07,0,0,0-1.24,1c-.35.21-.35,1.07-.36.57l-.73,1.15-.09-.07c-1,.89-1.34,2.46-3,3a3.34,3.34,0,0,1-1,1.28l-.38-.17c-.29.51-1.46,1-1.33,1.43-1.2-.29-2.06,1.85-2.87,2.46l.34.37a8.13,8.13,0,0,0-1.26,1.83l.36.27c-.23.79-1.52,1.16-2.27,2.05-.08-.17.15-.36.37-.44-1.68.34-1.42,2.67-2.81,3.1a.74.74,0,0,1-.52.56.16.16,0,0,0,0-.07l-.1.09c-.15.05-.31.1-.47.17a1.47,1.47,0,0,0,.43-.12,4.1,4.1,0,0,0-.52.84l-.46-.21-.05.07c-.37.15,0,.37.38.47a1.56,1.56,0,0,0-.1.55c-.78-.31-.45.87-1.32.61.14.45-1,1.56-.46,2.27-.09-.06-.2,0-.08-.17-.34.24-.67.47-.73.9l-.57-.28,0,1.2c-.63.16-.94.18-.94-.53-.3,1.44-.48,1-.66,2.24l-.26-.3c-.24.31-.26,1.12-.65,1.08-1.14.17-2.88,3.19-4.86,4.42,1.17.43-1.08.45-.44,1.1-.29-.07-.61.06-.56-.37-.53,1-1.43,1-1.35,2.13-.3-.08-.16-.45-.36-.47,0,.11,0,.43-.25.42s-.07-.28,0-.49c-.71.92-.13,1.55.43,2.13-.67.21-.82.47-.69,1.13-.33,0-.76.08-.37-.54-.29.29-1.88,1.66-1.41,2.1-.21,0-.4.41-.41.54a12.73,12.73,0,0,0-1.22,1.44l.24-.13c.38.76-.33.69-.72,1.3l0-.06c-1.47.93-.24.72-1.76,1.58l.43.24c.71.76-1.39.73-1.67,1.72l.43-.1c0,.63-2,.26-2.42.59-.14,0,0-.23.05-.4-1.33.69.38.53-.14,1.42-.38-.07-.52-.73-1-.23-.42.1-.36,2.23-1.45,2.56.33,0,.66,0,.53.49-.38.62-2,.93-1.73,2a.27.27,0,0,1-.24,0C49,76,48.35,77,48.5,77.57c-1.62-.61-1.45,3.2-2.66,2.26l-1,1.4-.1-.13A2,2,0,0,0,44.18,83c-.23.14-.23-.09-.29-.16a3.15,3.15,0,0,0-1.42,2.77L42,85.38c0,.23-.49.57-1.05,1.06a6,6,0,0,0-.82.84,3.48,3.48,0,0,0-.34.51c-.05.09-.09.18-.13.27a1.25,1.25,0,0,0,0,.19A.58.58,0,0,1,39.5,88c0,.54-.61.75-.87.78s-.37.12-.43,1.74l-.21.65a.6.6,0,0,1-.05.16l0,0-.12,0a1.86,1.86,0,0,1,.15.38c0,.06.06,0,.07.12a1.69,1.69,0,0,1,0,.56,4.61,4.61,0,0,1-.13.5,1,1,0,0,0,0,.57,2.81,2.81,0,0,1-.41-1.11c-.08-.42,0-.72.11-.55l0,.22a2.15,2.15,0,0,0-.2-1.43c-.16-.35-.34-.65-.2-1-.23-.36-.46-.73-.66-1.11l-.15-.28-.07-.13-.13-.24c-.18-.32-.36-.64-.55-1a36.65,36.65,0,0,0-2.34-3.61L32.9,84l-.57-.79c0-.31.24-.63.65-.06.09-.55-1-.7-1.13-.62-.62-1.25,1-.12.74-.45l-.39-.42v.16c-.52-.17-.8,0-1.31-.66-.23-.49.17-.49.06-.67s0-.1-.2-.26l-.75-1-.11.76c-.56-.24-.75-.88-.86,0,.1-.64-.6-1.54-1.34-2.36a11.88,11.88,0,0,1-1.63-1.79,4.61,4.61,0,0,1-2-1.46c.09.25-.26.81-.78.21,1.13-.77-.66-1.44-.5-2.58,0,.86-1.82-1.4-1.74-.11-.43-.53.3-.41.13-1a6.62,6.62,0,0,1-2-1.65,10.58,10.58,0,0,0-2.14-2c-.13.12,0,.53-.52.48l-.3-1.33c-.37-.17-.89.6-1.1-.32,0,.18,0,.45-.26.34a14,14,0,0,0-2.23-1.91c-.82-.55-1.69-1-2.54-1.53A16,16,0,0,1,5.3,59.41c.3.56,0,.42-.39.23.19.2-.21.38-.28.61-.37-.45-.74-.92-1.14-1.35-.57.45-1.6-.75-2-.26l.51.13c-.94.36.12,1.91-.41,2.72,1.08-.43,1.16,2,2.81,1.54.14.3-.36.16-.34.42.47-.2.85-.11,1.36.4l-.12,0C7,64.82,7.53,65.57,9.19,67l.13-.48a1.66,1.66,0,0,1,.48.7c.85-.3-1.09-.75-.24-1.14,0,1.12,2.75,1.88,2.46,3,.59.42.15-.57.74-.15l0,.35.37-.2a.84.84,0,0,1,.18,1,1.46,1.46,0,0,0-.42-.19c.28.65,1.45.94,1.55,1.16L14,70.5a17.66,17.66,0,0,1,2.55,1.85,13.54,13.54,0,0,0,2.62,1.74l0-.26c1.37.66.74.93,2,1.89h-.08a1.88,1.88,0,0,1,1.07.6c-.47-.09.2.88-.38.73,1.45.76.8.29,2.13.44l-.09.44a1.48,1.48,0,0,1,1.27.42c-.69-.25-.05.76-.87.53.59,1.74,2.3,1.27,1.95,2.63,1.29-.12-.56-1.46-.1-1.29,0-.5,1,0,1.28.42s-.36,1.55.52,2.56c-.09-.1-.15-.06-.23-.16.12.55.91.52,1,1.26.71-.13.47.65,1.15.23q-.45-.44-.93-.84c.63.39,1.74.34,2.12,1.54a2.14,2.14,0,0,1-.8-.23c0,.41.53.42.56.84-.69.41-1.07-1.08-2-1.28,0,.49,1.33.75.43,1,1.18-.25.71,1.12,1.92,1.33l-.41.23a1.6,1.6,0,0,1,.65.4h-.78c.85.27.46,1.41,1.11,1.8-.88-1.17.27-.6.18-1.31.79.55.7,1,.57,1.39a1.87,1.87,0,0,0-.1.73c0,.31.06.46.68,1.28a1.53,1.53,0,0,1-.26-.41,1.19,1.19,0,0,1-.14-.44c0-.2.06-.35.28-.23l0,.15.11.25.2.51a5,5,0,0,1,.27,1c.69,1,.7.79.65.44s-.15-.83.19-.56c.06,1.16.75.72,1.27,1.2l-.22.56c1.21,2.47.7-.77,1.65,1.42a2.18,2.18,0,0,1-.63.25l.65.7c-.07.23-.15.44-.23.66a2.29,2.29,0,0,1,.84.79s.06.12.09.11l.09-.12.2-.22.49-.5a3.09,3.09,0,0,1,.59-2.32c.46-.15-.14,1,.71-.32-.09.64-.26,1.52-.75,1.44,0,.28-.16.73-.18,1,.56-.22,1.31-1.68,1.65-2.15a1.43,1.43,0,0,1-.42.39c.39-.93.74-1.78,1-2.57.3-.1.23.25.13.62.25-.43.31-.89.67-1.45a1.63,1.63,0,0,1-.08,1.77L43,91.11a.9.9,0,0,0,.26-.11,1.15,1.15,0,0,1,.31-.14c.17,0,.33-.07.33,0,.63-.47.48-2,1.33-2.57a.58.58,0,0,1,.06-.42c.63-.7,1.52-1.08,1.76-2.29l.94-.08c.4-.8-1.22.15-.56-1.18.44-1,.71.06,1.08-.11,0-.63,0-1.78,1-2.18C49.46,82.41,49.23,82.54,49.09,82.8Zm6.38-8.7c0,.23-.07.75-.39.69C54.8,74.26,55.12,74.28,55.47,74.1Zm9.45-13.46c0,.22-.19.36-.5.45A1,1,0,0,1,64.92,60.64ZM93.25,24.39v0C92.79,24.63,93,24.56,93.25,24.39Zm.83-.55a.13.13,0,0,0-.11-.17c0,.13-.11.29-.31.45C93.8,24.16,94,24.13,94.08,23.84ZM30.75,80.56l0,.23C30.39,80.55,30.56,80.56,30.75,80.56Z" transform="translate(-0.97)"/><path class="cls-2" d="M64.24,62.49a.49.49,0,0,1-.26-.1C64,62.51,64.06,62.57,64.24,62.49Z" transform="translate(-0.97)"/><path class="cls-2" d="M45.27,88.32l0,0a.22.22,0,0,0,0,.08Z" transform="translate(-0.97)"/><path class="cls-2" d="M86.62,37.54a.79.79,0,0,1-.45.11C86.25,37.74,86.39,37.74,86.62,37.54Z" transform="translate(-0.97)"/><path class="cls-2" d="M97.14,19.6l-.36.53a.84.84,0,0,1,.52-.29C97.21,19.77,97,19.74,97.14,19.6Z" transform="translate(-0.97)"/><path class="cls-2" d="M103.08,17.9c0-.1.14-.14.16-.24l-.18-.15C102.79,17.79,102.73,18.11,103.08,17.9Z" transform="translate(-0.97)"/><path class="cls-2" d="M98.68,20.32c.32.26.5-.12.76-.48l0,.06C99.08,19.4,98.88,19.86,98.68,20.32Z" transform="translate(-0.97)"/><path class="cls-2" d="M99.5,19.76a1.28,1.28,0,0,1,.28-.29C99.66,19.27,99.63,19.55,99.5,19.76Z" transform="translate(-0.97)"/><path class="cls-2" d="M94.75,22.77c.22-.07-.27-.46-.07-.42C94.47,21.82,94.15,23.77,94.75,22.77Z" transform="translate(-0.97)"/><polygon class="cls-2" points="98.9 21.02 98.44 20.78 98.55 21.23 98.9 21.02"/><path class="cls-2" d="M97.17,23.19l.6-.39c-.07-.06,0-.15,0-.26C97.46,22.83,97.06,23.1,97.17,23.19Z" transform="translate(-0.97)"/><path class="cls-2" d="M97.78,22.54a1.09,1.09,0,0,0,.34-.45A1.89,1.89,0,0,0,97.78,22.54Z" transform="translate(-0.97)"/><polygon class="cls-2" points="98.33 21.8 98.11 21.87 97.74 22.19 98.33 21.8"/><path class="cls-2" d="M91.86,28.47l-.42.65c.07.18.29.1.43-.15S92.06,28.51,91.86,28.47Z" transform="translate(-0.97)"/><path class="cls-2" d="M94.45,27.79c-.21.07-.3,0-.5,0l.43.45Z" transform="translate(-0.97)"/><path class="cls-2" d="M93,29.47c.07.17-.41,1.14.23.42C93.17,29.71,93.6,29.07,93,29.47Z" transform="translate(-0.97)"/><polygon class="cls-2" points="83.6 37.24 83.72 37.09 82.96 36.42 83.6 37.24"/><path class="cls-2" d="M79.57,46.31c.78-.5-.32-.58.45-1,0-.32-.63.32-.64,0C79.2,45.93,78.9,46.05,79.57,46.31Z" transform="translate(-0.97)"/><path class="cls-2" d="M79.38,45.36a2.05,2.05,0,0,0,.07-.31A.87.87,0,0,0,79.38,45.36Z" transform="translate(-0.97)"/><polygon class="cls-2" points="1.77 57.93 1.33 57.48 1.52 57.95 1.77 57.93"/><path class="cls-2" d="M1.39,58.1l.16-.65L1,57.82C1.11,57.86,1.36,57.92,1.39,58.1Z" transform="translate(-0.97)"/><path class="cls-2" d="M57.48,73.66l-.09-.13c-.19,0-.28.06-.47.26Z" transform="translate(-0.97)"/><polygon class="cls-2" points="51.31 79.51 51.4 79.41 50.78 79.25 51.31 79.51"/><path class="cls-2" d="M48.89,85.17c.18-.2.27-.53.45-.73C49.07,85,48.26,84.79,48.89,85.17Z" transform="translate(-0.97)"/></g></g></svg>